<!--?xml version="1.0" standalone="no"?-->
              <svg id="sw-js-blob-svg" viewBox="0 0 100 100" xmlns="http://www.w3.org/2000/svg" version="1.1">
                    <defs> 
                        <linearGradient id="sw-gradient" x1="0" x2="1" y1="1" y2="0">
                            <stop id="stop1" stop-color="rgba(248, 117, 55, 1)" offset="0%"></stop>
                            <stop id="stop2" stop-color="rgba(251, 168, 31, 1)" offset="100%"></stop>
                        </linearGradient>
                    </defs>
                <path fill="url(#sw-gradient)" d="M22.7,-34.7C28.8,-31.4,32.7,-24,35.7,-16.6C38.7,-9.1,40.9,-1.4,39.3,5.2C37.7,11.9,32.3,17.6,26.7,22.1C21.2,26.6,15.4,29.8,9.5,31C3.5,32.2,-2.8,31.4,-10.6,31.3C-18.5,31.2,-27.9,31.8,-31.2,27.4C-34.5,23,-31.6,13.6,-32.1,5.1C-32.7,-3.4,-36.6,-11,-35.5,-17.4C-34.5,-23.9,-28.4,-29.3,-21.6,-32.3C-14.8,-35.3,-7.4,-36,0.4,-36.7C8.3,-37.4,16.6,-38.1,22.7,-34.7Z" width="100%" height="100%" transform="translate(50 50)" stroke-width="0" style="transition: all 0.3s ease 0s;"></path>
              </svg>