<!--?xml version="1.0" standalone="no"?-->
              <svg id="sw-js-blob-svg" viewBox="0 0 100 100" xmlns="http://www.w3.org/2000/svg" version="1.1">
                    <defs> 
                        <linearGradient id="sw-gradient" x1="0" x2="1" y1="1" y2="0">
                            <stop id="stop1" stop-color="rgba(248, 117, 55, 1)" offset="0%"></stop>
                            <stop id="stop2" stop-color="rgba(251, 168, 31, 1)" offset="100%"></stop>
                        </linearGradient>
                    </defs>
                <path fill="url(#sw-gradient)" d="M21.5,-37.9C27.2,-34.1,30.5,-26.8,33.5,-19.9C36.5,-13,39.3,-6.5,40.6,0.8C41.9,8,41.9,16.1,38.7,22.7C35.4,29.2,29.1,34.3,22.2,37.9C15.2,41.5,7.6,43.5,0.4,42.8C-6.7,42,-13.4,38.4,-19.5,34.3C-25.6,30.2,-31.1,25.7,-35.2,19.9C-39.3,14.1,-42,7,-41.6,0.2C-41.2,-6.6,-37.7,-13.2,-34.2,-19.9C-30.6,-26.7,-27,-33.6,-21.3,-37.5C-15.6,-41.3,-7.8,-42.1,0.1,-42.2C8,-42.3,15.9,-41.8,21.5,-37.9Z" width="100%" height="100%" transform="translate(50 50)" stroke-width="0" style="transition: all 0.3s ease 0s;"></path>
              </svg>